<?xml version="1.0" standalone="no"?>
<!DOCTYPE svg PUBLIC "-//W3C//DTD SVG 20010904//EN"
 "http://www.w3.org/TR/2001/REC-SVG-20010904/DTD/svg10.dtd">
<svg version="1.0" xmlns="http://www.w3.org/2000/svg"
 width="432.000000pt" height="432.000000pt" viewBox="0 0 432.000000 432.000000"
 preserveAspectRatio="xMidYMid meet">
<metadata>
Created by potrace 1.14, written by Peter Selinger 2001-2017
</metadata>
<g transform="translate(0.000000,432.000000) scale(0.100000,-0.100000)"
fill="#000000" stroke="none">
<path d="M295 4306 c-138 -44 -230 -133 -274 -264 -21 -62 -21 -64 -19 -1899
l3 -1838 33 -70 c38 -80 76 -124 147 -170 107 -70 -37 -65 1979 -65 1809 1
1821 1 1881 21 33 12 67 27 76 35 8 8 20 14 25 14 12 0 83 74 112 115 11 17
30 59 41 93 l21 62 -2 1837 -3 1838 -36 76 c-43 89 -113 157 -205 198 l-59 26
-1840 2 c-1464 1 -1848 -1 -1880 -11z"/>
</g>
</svg>
