<svg width="311" height="311" viewBox="0 0 311 311" fill="none" xmlns="http://www.w3.org/2000/svg">
<path d="M306.296 71.8313C306.274 71.7001 306.279 71.5616 306.245 71.4329C306.151 71.0786 306.011 70.7381 305.83 70.4197C305.769 70.3103 305.677 70.2229 305.604 70.1208C305.473 69.9157 305.325 69.7222 305.161 69.5426C305.062 69.4405 304.936 69.3701 304.826 69.2777C304.664 69.1282 304.49 68.9917 304.306 68.8695L304.275 68.8574L304.248 68.838L268.723 48.4845C268.08 48.116 267.351 47.9222 266.61 47.9222C265.868 47.9222 265.139 48.116 264.496 48.4845L228.952 68.8355L228.925 68.855L228.894 68.8671C228.709 68.9899 228.534 69.1273 228.371 69.2777C228.262 69.3676 228.128 69.4405 228.038 69.5401C227.873 69.7219 227.723 69.9178 227.591 70.1257C227.521 70.2277 227.431 70.3128 227.37 70.4197C227.189 70.7381 227.049 71.0787 226.955 71.4329C226.921 71.5568 226.926 71.6904 226.904 71.8168C226.853 72.0494 226.822 72.2859 226.811 72.5238V81.1856L195.199 61.3885C195.245 61.1757 195.274 60.9596 195.286 60.7422V25.2056C195.275 24.9718 195.244 24.7394 195.194 24.5107C195.172 24.3795 195.177 24.241 195.143 24.1123C195.048 23.7589 194.909 23.4191 194.727 23.1015C194.642 22.9753 194.551 22.8536 194.453 22.7371C194.336 22.5564 194.205 22.385 194.062 22.2244C193.934 22.1113 193.799 22.0058 193.658 21.9085C193.514 21.779 193.362 21.6597 193.201 21.5514H193.177L193.16 21.5149L157.614 1.16386C156.97 0.795401 156.242 0.601563 155.5 0.601562C154.758 0.601562 154.03 0.795401 153.386 1.16386L117.84 21.5149L117.811 21.5368H117.786C117.625 21.6458 117.472 21.766 117.327 21.8964C117.188 21.9929 117.054 22.0976 116.926 22.2098C116.781 22.3726 116.649 22.5465 116.53 22.7298C116.434 22.8441 116.344 22.9633 116.261 23.0869C116.079 23.4053 115.939 23.7459 115.845 24.1001C115.811 24.224 115.816 24.3577 115.794 24.484C115.743 24.7166 115.712 24.9532 115.702 25.191V60.7422C115.714 60.9604 115.743 61.1773 115.789 61.391L84.1838 81.1856V72.5262C84.1726 72.2924 84.1417 72.06 84.0915 71.8313C84.0696 71.7001 84.0745 71.5616 84.0405 71.4329C83.9463 71.0786 83.8066 70.7381 83.625 70.4197C83.5643 70.3103 83.4719 70.2229 83.3991 70.1208C83.2686 69.9157 83.1206 69.7222 82.9568 69.5426C82.8572 69.4405 82.7309 69.3701 82.6216 69.2777C82.4593 69.1282 82.2854 68.9917 82.1016 68.8695L82.07 68.8574L82.0433 68.838L46.514 48.4845C45.8704 48.116 45.1417 47.9222 44.4001 47.9222C43.6586 47.9222 42.9299 48.116 42.2863 48.4845L6.74969 68.8355L6.72296 68.855L6.69137 68.8671C6.50665 68.9899 6.33198 69.1273 6.16899 69.2777C6.05965 69.3676 5.92602 69.4405 5.83612 69.5401C5.67031 69.7219 5.52072 69.9178 5.38906 70.1257C5.3186 70.2277 5.2287 70.3128 5.16796 70.4197C4.98645 70.7381 4.8468 71.0787 4.75248 71.4329C4.71847 71.5568 4.72333 71.6904 4.70146 71.8168C4.65058 72.0494 4.6197 72.2859 4.60913 72.5238V108.06C4.60903 108.824 4.8145 109.573 5.20398 110.23C5.59345 110.887 6.15255 111.426 6.82258 111.792L40.1457 129.988V178.674L6.74969 197.801L6.72296 197.82L6.69137 197.832C6.50665 197.955 6.33198 198.093 6.16899 198.243C6.05965 198.333 5.92602 198.406 5.83612 198.506C5.67031 198.687 5.52072 198.883 5.38906 199.091C5.3186 199.193 5.2287 199.278 5.16796 199.385C4.98645 199.704 4.8468 200.044 4.75248 200.398C4.71847 200.522 4.72333 200.656 4.70146 200.782C4.65058 201.015 4.6197 201.251 4.60913 201.489V237.026C4.60951 237.79 4.81571 238.54 5.20607 239.196C5.59642 239.853 6.15651 240.392 6.82744 240.758L42.3616 260.154C42.5614 260.251 42.7686 260.333 42.9812 260.397C43.0954 260.438 43.2023 260.499 43.3189 260.528C44.026 260.721 44.7718 260.721 45.4789 260.528C45.5955 260.497 45.7024 260.436 45.8166 260.397C46.0293 260.333 46.2365 260.251 46.4362 260.154L76.6081 243.683L115.726 269.727V287.349C115.726 288.113 115.931 288.862 116.321 289.519C116.71 290.176 117.269 290.715 117.939 291.081L153.474 310.478C153.673 310.575 153.881 310.656 154.093 310.721C154.207 310.762 154.314 310.823 154.431 310.852C155.138 311.044 155.884 311.044 156.591 310.852C156.708 310.82 156.814 310.76 156.929 310.721C157.141 310.656 157.349 310.575 157.548 310.478L193.073 291.077C193.743 290.711 194.302 290.171 194.691 289.514C195.081 288.858 195.286 288.108 195.286 287.345V269.722L234.404 243.678L264.576 260.149C264.776 260.246 264.983 260.328 265.196 260.392C265.31 260.433 265.417 260.494 265.533 260.523C266.24 260.716 266.986 260.716 267.693 260.523C267.81 260.492 267.917 260.431 268.031 260.392C268.244 260.328 268.451 260.246 268.651 260.149L304.173 240.758C304.843 240.392 305.402 239.852 305.791 239.195C306.181 238.539 306.386 237.789 306.386 237.026V201.492C306.375 201.258 306.344 201.025 306.294 200.797C306.272 200.666 306.277 200.527 306.243 200.398C306.148 200.044 306.009 199.703 305.827 199.385C305.767 199.276 305.674 199.188 305.601 199.086C305.471 198.881 305.323 198.688 305.159 198.508C305.059 198.406 304.933 198.335 304.824 198.243C304.661 198.094 304.488 197.957 304.304 197.835L304.272 197.823L304.246 197.803L270.849 178.677V129.988L304.17 111.8C304.84 111.434 305.399 110.894 305.789 110.237C306.178 109.581 306.384 108.831 306.384 108.068V72.5262C306.374 72.2926 306.345 72.0601 306.296 71.8313ZM181.235 252.321L155.5 266.369L129.765 252.321L128.676 251.725L155.5 236.365L182.324 251.716L181.235 252.321ZM75.6799 105.538L48.6497 120.291V94.4469L75.6799 79.6938V92.6161V105.538ZM44.3977 186.039L71.2215 201.399L70.1329 201.995L44.3977 216.043L18.6624 201.995L17.5739 201.399L44.3977 186.039ZM79.5747 196.384L48.6497 178.672V129.988L76.8195 114.611L115.714 139.918V170.941L79.5747 196.384ZM124.218 58.2178V32.3732L151.248 47.136V72.9733L124.218 58.2178ZM186.782 58.2178L159.752 72.9733V47.136L186.782 32.3781V58.2178ZM155.5 122.16L182.324 137.52L181.235 138.116L155.5 152.164L129.765 138.116L128.676 137.52L155.5 122.16ZM124.218 144.778L151.248 159.533V185.385L124.218 170.625V144.778ZM159.752 159.533L186.782 144.778V170.625L159.752 185.385V159.533ZM195.286 139.918L234.181 114.604L262.35 129.988V178.674L231.425 196.387L195.286 170.941V139.918ZM262.346 94.4469V120.291L235.32 105.538V79.6938L262.346 94.4469ZM235.32 234.504V208.657L262.35 223.412V249.257L235.32 234.504ZM292.338 201.995L266.602 216.043L240.865 201.995L239.776 201.399L266.6 186.039L293.424 201.399L292.338 201.995ZM266.602 57.0734L293.426 72.4339L292.338 73.0292L266.602 87.0776L240.865 73.0292L239.776 72.4339L266.602 57.0734ZM226.964 109.151L190.893 132.629L159.752 114.795V82.6629L188.277 67.0886L226.814 91.2202V108.058C226.816 108.427 226.867 108.795 226.964 109.151ZM155.5 9.75523L182.321 25.1181L156.676 39.118L155.5 39.7595L154.324 39.118L128.679 25.1157L155.5 9.75523ZM122.724 67.0959L151.248 82.6702V114.795L120.107 132.629L84.0356 109.151C84.1324 108.795 84.1822 108.427 84.1838 108.058V91.2202L122.724 67.0959ZM44.3977 57.0734L71.2215 72.4339L70.1329 73.0292L44.3977 87.0776L18.6624 73.0292L17.5739 72.4339L44.3977 57.0734ZM13.1203 79.6938L40.1506 94.4493V120.291L13.1203 105.538V79.6938ZM13.1203 208.659L40.1506 223.415V249.259L13.1203 234.504V208.659ZM48.6545 223.415L75.6848 208.659V234.504L48.6545 249.257V223.415ZM83.9482 238.352C84.1002 237.925 84.1822 237.477 84.1911 237.023V203.542L120.25 178.147L151.248 195.068V229.001L117.84 248.127L117.813 248.146L117.782 248.159C117.597 248.281 117.422 248.419 117.259 248.569C117.15 248.659 117.016 248.732 116.926 248.832C116.76 249.013 116.611 249.209 116.479 249.417C116.409 249.519 116.319 249.604 116.258 249.711C116.077 250.03 115.937 250.37 115.843 250.724C115.809 250.848 115.814 250.982 115.792 251.108C115.741 251.341 115.71 251.577 115.699 251.815V259.508L83.9482 238.352ZM124.218 267.428V258.98L151.248 273.736V299.581L124.218 284.827V267.428ZM159.752 299.581V273.738L186.782 258.983V284.83L159.752 299.581ZM195.286 251.815C195.275 251.581 195.244 251.349 195.194 251.12C195.172 250.989 195.177 250.851 195.143 250.722C195.049 250.368 194.909 250.027 194.727 249.709C194.667 249.599 194.574 249.512 194.501 249.41C194.371 249.205 194.223 249.011 194.059 248.832C193.96 248.73 193.833 248.659 193.724 248.567C193.562 248.417 193.388 248.281 193.204 248.159L193.172 248.146L193.146 248.127L159.752 229.001V195.068L190.75 178.147L226.816 203.542V237.026C226.825 237.479 226.907 237.928 227.059 238.355L195.293 259.51L195.286 251.815ZM270.849 249.254V223.412L297.88 208.657V234.504L270.849 249.254ZM270.849 120.289V94.4469L297.88 79.6938V105.538L270.849 120.289Z" fill="url(#paint0_linear_67_388)"/>
<defs>
<linearGradient id="paint0_linear_67_388" x1="155.498" y1="0.601562" x2="155.498" y2="310.996" gradientUnits="userSpaceOnUse">
<stop stop-color="#FFF4CF"/>
<stop offset="1" stop-color="#D3D4D1"/>
</linearGradient>
</defs>
</svg>
