<svg width="432" height="432" viewBox="0 0 432 432" fill="none" xmlns="http://www.w3.org/2000/svg">
<g clip-path="url(#clip0_42_5)">
<rect width="432" height="432" rx="39.8769" fill="#6F4E37"/>
<path d="M123.203 211.342C71.0511 211.155 45.6296 194.332 46.5642 154.891H88.8088C89.5565 166.854 99.6504 174.331 123.203 174.518C144.512 174.705 154.98 168.162 154.98 159.19C154.98 152.274 150.12 147.04 133.67 144.423L113.857 141.246C84.1357 136.199 50.4896 131.152 50.4896 93.0194C50.4896 62.364 75.5373 43.8586 123.577 43.8586C167.13 43.8586 197.598 56.9432 197.037 99.9355H155.167C153.11 88.1594 143.577 80.6824 122.455 80.6824C103.95 80.6824 95.5381 86.4771 95.5381 95.2624C95.5381 101.431 99.8373 107.039 113.296 109.282L129.932 112.272C160.774 117.506 201.523 119.749 201.523 161.059C201.523 194.145 175.354 211.529 123.203 211.342ZM301.034 211.342C248.882 211.342 221.591 188.35 221.591 138.629V49.0924H268.883V137.507C268.883 158.816 278.79 171.901 301.034 171.901C323.278 171.901 333.371 158.816 333.371 137.507V49.0924H380.476V138.442C380.476 188.35 353.185 211.342 301.034 211.342Z" fill="#FFF4CF"/>
<path d="M32.0266 387.216V230.2H91.2812L121.376 326.653H124.74L154.835 230.2H214.277V387.216H169.415V309.269H165.677L140.816 387.216H105.487L80.6266 309.269H76.7012V387.216H32.0266ZM355.217 387.216L347.366 364.598H276.709L268.858 387.216H220.445L279.139 230.2H344.936L403.817 387.216H355.217ZM288.859 329.643H335.216L316.15 274.314H307.925L288.859 329.643Z" fill="#F19837"/>
</g>
<defs>
<clipPath id="clip0_42_5">
<rect width="432" height="432" rx="39.8769" fill="white"/>
</clipPath>
</defs>
</svg>
